<svg id="SvgjsSvg1094" width="288" height="288" xmlns="http://www.w3.org/2000/svg" version="1.1" xmlns:xlink="http://www.w3.org/1999/xlink" xmlns:svgjs="http://svgjs.com/svgjs"><defs id="SvgjsDefs1095"></defs><g id="SvgjsG1096"><svg xmlns="http://www.w3.org/2000/svg" viewBox="0 0 16 16" width="288" height="288"><path fill="#ffffff" d="M14 13.1V12H4.6l.6-1.1 9.2-.9L16 4H3.7L3 1H0v1h2.2l2.1 8.4L3 13v1.5c0 .8.7 1.5 1.5 1.5S6 15.3 6 14.5 5.3 13 4.5 13H12v1.5c0 .8.7 1.5 1.5 1.5s1.5-.7 1.5-1.5c0-.7-.4-1.2-1-1.4zM4 5h10.7l-1.1 4-8.4.9L4 5z" class="color444 svgShape"></path></svg></g></svg>